/* XPM */
static char *_e752b52a36c4f979d0f3f47238c0155296iZZBB3Pc7bKGp[] = {
/* columns rows colors chars-per-pixel */
"40 40 198 2 ",
"   c #1E1D1B",
".  c #221D1C",
"X  c #2D1D1C",
"o  c #321E1E",
"O  c #25221D",
"+  c #30261E",
"@  c #262525",
"#  c #2A2421",
"$  c #2C2A22",
"%  c #2B2B2B",
"&  c #322020",
"*  c #3B2C2A",
"=  c #3E3326",
"-  c #3A3429",
";  c #333333",
":  c #393939",
">  c #462222",
",  c #4A2424",
"<  c #482928",
"1  c #4B2828",
"2  c #562A28",
"3  c #4A3626",
"4  c #473925",
"5  c #433B2F",
"6  c #493C2E",
"7  c #5F352E",
"8  c #463D36",
"9  c #4B3E31",
"0  c #563838",
"q  c #622727",
"w  c #622828",
"e  c #6E2D2D",
"r  c #722F2F",
"t  c #7F2F2F",
"y  c #6A322F",
"u  c #693935",
"i  c #773635",
"p  c #7B3838",
"a  c #44401F",
"s  c #58402B",
"d  c #4E4434",
"f  c #524234",
"g  c #5A4737",
"h  c #5E4736",
"j  c #554A3B",
"k  c #5C4D3B",
"l  c #5B533B",
"z  c #62462D",
"x  c #684B33",
"c  c #754836",
"v  c #61523E",
"b  c #7A5736",
"n  c #77583A",
"m  c #716928",
"M  c #434343",
"N  c #4D4D4D",
"B  c #564846",
"V  c #56524F",
"C  c #565656",
"Z  c #5C5C5C",
"A  c #644242",
"S  c #6F4A4A",
"D  c #665544",
"F  c #6C5E46",
"G  c #765745",
"H  c #655954",
"J  c #705858",
"K  c #6D6249",
"L  c #776249",
"P  c #7F694E",
"I  c #6B635D",
"U  c #7E6B52",
"Y  c #72675E",
"T  c #646362",
"R  c #6B6767",
"E  c #6B6A6A",
"W  c #736D6A",
"Q  c #7B7373",
"!  c #7B7B7B",
"~  c #842E2E",
"^  c #85312F",
"/  c #8B3534",
"(  c #893635",
")  c #9B3333",
"_  c #973936",
"`  c #943E3B",
"'  c #A53535",
"]  c #A33937",
"[  c #A63C3B",
"{  c #AA3B3B",
"}  c #814D3E",
"|  c #9D423B",
" . c #835E3A",
".. c #A4453E",
"X. c #817533",
"o. c #934040",
"O. c #8D5644",
"+. c #975947",
"@. c #A94240",
"#. c #A74940",
"$. c #A84E41",
"%. c #B34444",
"&. c #B54A48",
"*. c #BB4D4D",
"=. c #A85A48",
"-. c #B5504C",
";. c #B95550",
":. c #856849",
">. c #936647",
",. c #957449",
"<. c #806B56",
"1. c #8D6C51",
"2. c #897A57",
"3. c #937455",
"4. c #977B5A",
"5. c #A4654F",
"6. c #A5794A",
"7. c #AC6C53",
"8. c #B66854",
"9. c #A87759",
"0. c #B97550",
"q. c #85786F",
"w. c #C3775F",
"e. c #C97F65",
"r. c #9E8C3B",
"t. c #A09439",
"y. c #C5B437",
"u. c #D4BF3F",
"i. c #998A4D",
"p. c #92825F",
"a. c #A4835E",
"s. c #B98858",
"d. c #AC975A",
"f. c #9C8661",
"g. c #A78664",
"h. c #AB8B64",
"j. c #B58A65",
"k. c #B58D66",
"l. c #A79068",
"z. c #B1956C",
"x. c #BC936A",
"c. c #B9976A",
"v. c #B59A6E",
"b. c #AF997F",
"n. c #BA9F74",
"m. c #B9A174",
"M. c #C08656",
"N. c #C89A57",
"B. c #CEB34B",
"V. c #DBBE4E",
"C. c #C8AA53",
"Z. c #D1A950",
"A. c #CF866A",
"S. c #C2996A",
"D. c #C69F72",
"F. c #C9A668",
"G. c #C4A575",
"H. c #CBA475",
"J. c #C7AA76",
"K. c #C3AE7E",
"L. c #CEAB7B",
"P. c #D2AD7A",
"I. c #D8AD7D",
"U. c #D4B17F",
"Y. c #848484",
"T. c #8A8681",
"R. c #969289",
"E. c #939393",
"W. c #9B9695",
"Q. c #9C9C9C",
"!. c #BBA789",
"~. c #A4A19E",
"^. c #BDAC9D",
"/. c #A4A3A3",
"(. c #A9A7A2",
"). c #ADADAD",
"_. c #B6B5B5",
"`. c #BCBCBB",
"'. c #CBB482",
"]. c #D6B681",
"[. c #DAB681",
"{. c #DCBB84",
"}. c #E0B783",
"|. c #E0BE89",
" X c #E4C48B",
".X c #E4C48C",
"XX c #E6CC94",
"oX c #EBCC92",
"OX c #F1D398",
"+X c #C2C2C2",
"@X c #CBCBCB",
"#X c #D3D0CD",
"$X c #D5D5D5",
"%X c #DBDBDB",
"&X c #E3E3E3",
"*X c #ECECEC",
"=X c #F4F4F4",
"-X c #FFFFFF",
/* pixels */
"-X-X-X-X-X-X-X-X-X-X-X-X-X-X-X-X-X-X-X-X-X-X-X-X-X-X-X-X-X-X-X-X-X-X-X-X-X-X-X-X",
"-X-X-X-X-X-X-X-X-X-X-X-X-X-X-X-X-X-X-X-X-X-X-X-X-X-X-X-X-X-X-X-X-X-X-X-X-X-X-X-X",
"-X-X-X-X-X-X-X-X-X-X-X-X-X-X-X-X-X-X-X-X-X-X-X-X-X-X-X-X-X-X-X-X-X-X-X-X-X-X-X-X",
"-X-X-X-X-X-X-X-X-X-X-X-X-X-X-X-X-X-X-X-X-X-X-X-X-X-X-X-X-X-X-X-X-X-X-X-X-X-X-X-X",
"-X-X-X-X-X-X-X-X-X-X-X-X-X-X-X-X-X-X-X-X-X-X-X-X-X-X-X-X-X-X-X-X-X-X-X-X-X-X-X-X",
"-X-X-X-X-X-X-X-X-X-X-X-X-X-X-X-X-X-X-X-X-X-X-X-X-X-X-X-X-X-X-X-X-X-X-X-X-X-X-X-X",
"-X-X-X-X-X-X-X-X-X=X=X=X=X=X-X-X=X=X=X=X=X=X=X=X=X=X-X-X-X-X-X-X-X-X-X-X-X-X-X-X",
"-X-X-X-X-X-X-X-X*X+XQ.Q.Q.`.*X&X`.Q.Q.Q.Q.Q.Q.Q.(.$X=X-X-X-X-X-X-X-X-X-X-X-X-X-X",
"-X-X-X-X-X-X-X-X%XY.: ; ; ! $X$X! ; ; ; ; ; ; ; C ).=X-X-X-X-X-X-X-X-X-X-X-X-X-X",
"-X-X-X-X-X-X*X@X(.Y.Z : . N E.W.H > , , < < , > 0 q._.%X=X-X-X-X-X-X-X-X-X-X-X-X",
"-X-X-X-X-X-X@X! T E.).E % % M B u ~ / ` o.o.` ^ i A Z /.*X-X-X-X-X-X-X-X-X-X-X-X",
"-X-X-X-X*X%X(.R Z (.%XY.% . X , ~ { %.*.*.*.&.{ _ w < Q +X&X=X-X-X-X-X-X-X-X-X-X",
"-X-X-X=X+XY.! E.).@X$XY.% o 2 t _ %.&.*.*.*.&.&.@./ r S R Q.%X-X-X-X-X-X-X-X-X-X",
"-X-X-X=X/.: Z _.*X&X@X! % > ~ ] %.*.*.*.*.*.*.&.&.{ ) w # R @X-X-X-X-X-X-X-X-X-X",
"-X-X-X=XQ.: C ).&X%X@X! % , ~ ' { %.&.*.*.*.&.%.{ ] ) q X R @X-X-X-X-X-X-X-X-X-X",
"-X-X-X=XQ.: N /.%X$X@X! % , ~ ' ' { %.&.*.*.&.{ ' ' ) q X R @X=X-X-X-X-X-X-X-X-X",
"-X-X-X=XQ.: N /.$X$X@XR.D c _ ' ' ' { %.%.%.{ { ' ' ) p h Y R.`.&X-X-X-X-X-X-X-X",
"-X-X-X=XQ.: N /.$X$X#X^.g.5...' ' ' ' { { { ' ' ' ' ] =.9.U B R `.-X-X-X-X-X-X-X",
"-X-X-X=XQ.: N /.@X`.(.!.F.M.=.| / ~ _ ..#.#.| / ^ ` $.0.N.,.= N ).-X-X-X-X-X-X-X",
"-X-X-X=XQ.: N /.+XY.H i.V.Z.s.+.u < c 5.7.7.O.7 2 } 7.N.V.r.4 N ).-X-X-X-X-X-X-X",
"-X-X-X=XQ.: N /._.T $ m y.B.S.4.v 5 L h.k.k.3.g 9 :.k.C.u.t.l T `.-X-X-X-X-X-X-X",
"-X-X-X=XQ.: N /._.T O a m i.J.L.l.4.z.H.L.L.v.f.f.m.U.d.X.2.R._.%X-X-X-X-X-X=X-X",
"-X-X=X&XW.: V ~._.T #   O K '.OX.X{.[.].].].].[. XoXXXp.- T `.*X=X-X-X-X-X-X=X-X",
"-X-X@XE.W f F b.!.<.3 +   l z.|.oX.Xm.2.2.2.l.].oX.XL.U $ M ! ).%X-X-X-X-X-X=X-X",
"-X-XE.; 9 x >.s.S.,.c 3 . f 3.H..XXX2.- $ $ F K.OXU.h.D O . % Z `.-X-X-X-X-X-X-X",
"-X-X).T D z b 6.6. .z h k P h.H.[.].4.f 6 6 L n.{.L.c.3.D 5 O N ).-X-X-X-X-X-X-X",
"-X-X&X+XT.8 3 b  .s = F h.G.P.P.H.x.a.1.1.1.4.k.D.P.U.J.v.U - N ).-X-X-X-X-X-X-X",
"-X-X-X=XQ.: = n :.6 # L J.[.U.P.D.x.x.x.x.x.x.x.S.H.[.{. Xf.5 N ).-X-X-X-X-X-X-X",
"-X-X-X=XQ.: d g.v.v # D k.D.D.D.H.P.P.P.P.P.P.P.L.H.D.P.{.f.5 N ).-X-X-X-X-X-X-X",
"-X-X-X=XQ.: j m.'.K # g 3.9.9.j.H.}.}.}.}.}.}.}.I.S.j.x.L.f.j Z _.-X-X-X-X-X-X-X",
"-X-X-X=XQ.: 6 3.a.k . - g G +.8.w.A.A.A.A.A.A.A.e.8.=.>.P q.T.(.%X-X-X-X-X-X-X-X",
"-X-X-X=X/.: = x b 4   . # 2 / [ &.;.;.;.;.;.;.;.-.@._ y * W +X=X=X-X-X-X-X-X-X-X",
"-X-X-X=X+XY.I k 3 + . M R J u e i p p p p p p p i r e S W /.&X-X-X-X-X-X-X-X-X-X",
"-X-X-X-X*X%X/.V O   @ Q +XW.B X o & & & & & & & o o * Q +X&X=X-X-X-X-X-X-X-X-X-X",
"-X-X-X-X-X-X@XY.C C T (.*X+X! C C C C C C C C C C C T /.*X-X-X-X-X-X-X-X-X-X-X-X",
"-X-X-X-X-X-X*X@X`.`.+X%X=X&X@X`.`.`.`.`.`.`.`.`.`.`.+X%X=X-X-X-X-X-X-X-X-X-X-X-X",
"-X-X-X-X-X-X-X-X-X-X-X-X-X-X-X-X-X-X-X-X-X-X-X-X-X-X-X-X-X-X-X-X-X-X-X-X-X-X-X-X",
"-X-X-X-X-X-X-X-X-X-X-X-X-X-X-X-X-X-X-X-X-X-X-X-X-X-X-X-X-X-X-X-X-X-X-X-X-X-X-X-X",
"-X-X-X-X-X-X-X-X-X-X-X-X-X-X-X-X-X-X-X-X-X-X-X-X-X-X-X-X-X-X-X-X-X-X-X-X-X-X-X-X",
"-X-X-X-X-X-X-X-X-X-X-X-X-X-X-X-X-X-X-X-X-X-X-X-X-X-X-X-X-X-X-X-X-X-X-X-X-X-X-X-X"
};
