/* XPM */
static char *Untitled_design_4_1696411290[] = {
/* columns rows colors chars-per-pixel */
"40 40 16 1 ",
"  c #645A3A",
". c #655B3B",
"X c #665B3B",
"o c #675C3B",
"O c #695E3C",
"+ c #6B603D",
"@ c #6E623F",
"# c #6F633F",
"$ c #716440",
"% c #736641",
"& c #746742",
"* c #776943",
"= c #776A43",
"- c #786A43",
"; c #786A44",
": c #796B44",
/* pixels */
"      o@-;;:::::::::::::::::::::::::::;;",
"      O@-:::::::::::::::::::::::::::----",
"    Oo@%-:::::::::::::::::::::::::::;$$$",
"    O%=-;:::::::::::::::::::::::::::-$o ",
"   o@%;;::::::::::::::::::::::::::::-Oo ",
"  @%%;::::::::::::::::::::::::::::::-%  ",
"  @-::::::::::::::::::::::::::::::;;-$  ",
" o@;:::::::::::::::::::::::::::::::;$$o ",
"  @-::::::::::::::::::::::::::::::::-%  ",
"O@%-::::::::::::::::::::::::::::::::-#@O",
"&&%=::::::::::::::::::::::::::::::::-=#=",
"-;;;::::::::::::::::::::::::::::::::;;;;",
"-:::::::::::::::::::::::::::::::::::::::",
"::::::::::::::::::::::::::::::::::::::::",
"::::::::::::::::::::::::::::::::::-#=&##",
"::::::::::::::::::::::::::::::::;-&@@O+@",
"=%%=--:::::::::::::::::::::::::;--@o    ",
"#%@%#=:::::::::::::::::::::::::-&#@     ",
" Xoo@%:::::::::::::::::::::::::-@O      ",
"OOOO@%:::::::::::::::::::::::;;-#O@@Oo  ",
"$&&&-=-;:::::::::::::::::::::::-&&&#&o  ",
";;--::;;::::::::::::::::::::::::::--&#  ",
"::;:::::::::::::::::::::::::::::::&&#o  ",
":::::::::::::::::::::::::::::::::-&O    ",
"::::::::::::::::::::::::::::::::::=#OO@O",
"::::::::::::::::::::::::::::::::::-&$&&&",
"::::::::::::::::::::::::::::::::::::;:::",
"::::::::::::::::::::::::::::::::::::;:::",
":::::::::::::::::::::::::::::::::::::::;",
":::::::::::::::::::::::::::::::::::::::;",
":::::::::::::::::::::::::::::::::::;::;;",
"--;;:::::::::::::::::::::::::::::::;---;",
"$$$-;;::::::::::::::::::::::::::::::=$$$",
" O$*;;::::::::::::::::::::::::::::::-% o",
" XO$$-::::::::::::::::::::::::::;;-&$O  ",
" Xoo$=:::::::::::::::::::::::::::-&%oO  ",
"   OO%::::::::::::::::::::::::::::&O oO ",
"  X$$=::::::::::::::::::::::::::::&%@$O$",
" XO$&:::::::::::::::::::::::::::::--=-=-",
" o%*;;::::::::::::::::::::::::::::;:;;=;"
};
