/* XPM */
static char *Untitled_design_7_1696412665[] = {
/* columns rows colors chars-per-pixel */
"40 40 144 2 ",
"   c #040404",
".  c #0F0F08",
"X  c #151703",
"o  c #191C03",
"O  c #1B1D03",
"+  c #1B1F02",
"@  c #181709",
"#  c #1A1A09",
"$  c #1C1C09",
"%  c #1F1E0D",
"&  c #252A02",
"*  c #262B02",
"=  c #23210E",
"-  c #2B200D",
";  c #2A3001",
":  c #2D3003",
">  c #2E3400",
",  c #303600",
"<  c #333A00",
"1  c #363B01",
"2  c #3C3C06",
"3  c #272217",
"4  c #2A2517",
"5  c #272318",
"6  c #2E291B",
"7  c #2F291B",
"8  c #392D12",
"9  c #392815",
"0  c #302A1B",
"q  c #39341E",
"w  c #3B3422",
"e  c #33322D",
"r  c #3B3A35",
"t  c #493F09",
"y  c #452B16",
"u  c #4A2D1B",
"i  c #4A3916",
"p  c #513516",
"a  c #5D3C1A",
"s  c #403721",
"d  c #413B23",
"f  c #443E23",
"g  c #443D29",
"h  c #493F29",
"j  c #403B30",
"k  c #3B4300",
"l  c #3E4502",
"z  c #3D4205",
"x  c #3F4900",
"c  c #464F04",
"v  c #4B4E08",
"b  c #4B5601",
"n  c #4A5205",
"m  c #4C5802",
"M  c #475108",
"N  c #48451D",
"B  c #5F4A12",
"V  c #5D5C11",
"C  c #625510",
"Z  c #735414",
"A  c #76511D",
"S  c #775B1F",
"D  c #5D6805",
"F  c #666A0A",
"G  c #676E09",
"H  c #667606",
"J  c #697907",
"K  c #66750B",
"L  c #646417",
"P  c #636C13",
"I  c #7B6F19",
"U  c #6E7211",
"Y  c #494029",
"T  c #494129",
"R  c #4B4329",
"E  c #4E462B",
"W  c #53462B",
"Q  c #544A2F",
"!  c #4F4731",
"~  c #484336",
"^  c #574D31",
"/  c #5E5435",
"(  c #684028",
")  c #625637",
"_  c #64573E",
"`  c #645A3A",
"'  c #665B3B",
"]  c #675C3B",
"[  c #6A5E3B",
"{  c #685D3C",
"}  c #695E3C",
"|  c #6B5F3C",
" . c #6B5F3D",
".. c #6D7728",
"X. c #717B2B",
"o. c #6B603D",
"O. c #6E623F",
"+. c #6F633F",
"@. c #71633C",
"#. c #73643D",
"$. c #71643F",
"%. c #75663D",
"&. c #484643",
"*. c #5C5440",
"=. c #5E5C57",
"-. c #716440",
";. c #716540",
":. c #746741",
">. c #746742",
",. c #766842",
"<. c #776943",
"1. c #776A43",
"2. c #786A44",
"3. c #796B44",
"4. c #63605A",
"5. c #67655F",
"6. c #74726C",
"7. c #77746F",
"8. c #99562B",
"9. c #907E20",
"0. c #B36D32",
"q. c #BC7734",
"w. c #B27A3D",
"e. c #846F49",
"r. c #BB7B41",
"t. c #807E62",
"y. c #817D74",
"u. c #7C8922",
"i. c #7F8442",
"p. c #83950E",
"a. c #85970D",
"s. c #8B9E0F",
"d. c #C5853D",
"f. c #C9843B",
"g. c #9BA05B",
"h. c #8A8170",
"j. c #86837D",
"k. c #968C76",
"l. c #D58A45",
"z. c #CC924B",
"x. c #D99754",
"c. c #AB9E84",
"v. c #B1AEA5",
"b. c #CCC7BD",
/* pixels */
"` ` ` ` ` ` ] O.1.1.1.3.3.3.3.3.3.3.3.3.3.3.3.3.3.3.3.3.3.3.3.3.3.3.3.3.3.3.2.2.",
"` ` ` ` ` ` } O.2.3.2.2.3.3.3.3.3.3.3.3.3.3.3.3.3.3.3.3.3.3.3.3.3.3.3.3.2.2.1.1.",
"` ` ` ` } } O.:.2.3.3.3.3.3.3.3.3.3.3.3.3.3.3.3.3.3.3.3.3.3.3.3.3.3.3.3.2.%.O.-.",
"` ` ` ` } -.1.1.3.3.3.3.3.3.3.3.3.3.3.3.3.3.3.3.3.3.3.3.3.3.3.3.3.3.3.3.1.O.} ` ",
"` ` ` } O.:.2.2.3.3.3.3.3.3.3.3.3.3.3.3.3.3.3.3.3.3.3.3.3.3.3.3.3.3.3.3.1.O.] ` ",
"` ` O.$.:.1.2.2.3.3.3.3.3.3.3.3.3.3.3.3.3.3.3.3.3.3.3.3.3.3.3.3.3.3.3.3.1.O.` ` ",
"` ` O.2.3.3.2.3.3.3.3.3.3.3.3.3.3.3.3.3.3.3.3.3.3.3.3.3.3.3.3.3.3.3.2.2.1.O.] ` ",
"` ` -.2.3.3.3.3.3.3.3.3.3.3.3.3.3.3.3.3.3.3.3.3.3.3.3.3.3.3.3.3.3.2.2.1.1.O._ ` ",
"` ` -.:.3.3.3.3.3.3.3.3.3.3.3.3.3.3.3.3.3.3.3.3.3.3.3.3.3.3.3.3.3.3.3.3.2.-.] ` ",
"} $.-.2.3.3.3.3.3.3.3.3.3.3.3.3.3.3.3.3.3.3.3.3.3.3.3.3.3.3.3.3.3.3.3.3.1.-.O.} ",
"-.1.:.2.3.3.3.3.3.3.3.3.3.3.2.2.3.3.3.3.3.3.3.3.3.3.3.3.3.3.3.3.3.3.3.3.1.2.$.1.",
"2.2.2.2.3.3.3.3.3.3.3.3.3.-.^ ^ ^ O.3.3.3.3.3.3.3.3.3.3.3.3.3.3.3.3.3.3.1.2.2.2.",
"2.3.3.3.3.3.3.3.3.3.3.3.2.^ 4.5.=.~ ] 2.2.2.2.3.3.3.3.3.3.3.3.3.3.3.3.3.3.3.3.2.",
"3.3.3.3.3.3.3.3.3.3.3.3.g 7.b.b.v.j.g 7 w -.2.2.3.3.3.3.3.3.3.3.3.3.3.3.3.3.3.2.",
"3.3.3.3.3.3.3.3.3.3.3.3.4 e r &.7.7...K n w :.2.3.3.3.3.3.3.3.3.3.3.1.-.-.2.-.:.",
"3.3.3.3.3.3.3.3.3.3.3.3.} ' T . 6 / u.p.P s d 1.3.3.3.3.3.3.3.3.2.1.:.-.o.} } o.",
"1.:.1.2.1.3.3.3.3.3.3.3.2.O.% > t C F U 7.h.T w %.3.3.3.3.3.3.3.2.1.$.} ` ` ` ` ",
"-.-.$.-.$.%.3.3.3.3.3.3.2.} $ x 2 B Z S k._ N * f $.3.3.3.3.3.1.-.O.o.} ` ` ` ` ",
"_ ` ` ` O.-.3.3.3.3.3.3.2.| # k x v V L i.g.X.m X / 3.3.3.3.3.1.O.} ` ` ` ` ` ` ",
"} } o.} O.:.3.3.3.3.3.3.2.| # , < c J p.s.a.H b o / 3.3.3.3.3.1.-.o.o.o.} ] ` ` ",
"-.1.$.1.1.2.2.3.3.3.3.3.3.1.E O > 1 k c M M l & d ;.3.3.3.3.3.3.2.$.:.:.O.o.{ ` ",
"2.2.2.2.3.3.2.3.3.3.3.3.3.3.%.T p 0.l.z.c.W e.q ;.3.3.3.3.3.3.3.3.3.2.2.1.O.` ` ",
"3.3.2.2.3.3.3.3.3.3.3.3.3.3.2.) u 8.q.f.x.r.( T 3.3.3.3.3.3.3.3.3.3.:.$.o.} ` ` ",
"3.3.3.2.3.3.3.3.3.3.3.3.2.2.2.2.Y : D G A a 7 1.3.3.3.3.3.3.3.3.3.2.-.O.` ` _ ' ",
"3.3.3.3.3.3.3.3.3.3.3.3.3.3.3.3.g X 9.p.z < 6 3.3.3.3.3.3.3.3.3.3.3.2.-.} } } } ",
"3.3.3.3.3.3.3.3.3.3.3.3.3.3.3.3.h   r.l.- ; 6 3.3.3.3.3.3.3.3.3.3.3.2.-.$.1.%.1.",
"3.3.3.3.3.3.3.3.3.3.3.3.3.3.3.3.{ 3 9 y - = ) 3.3.3.3.3.3.3.3.3.3.3.3.3.2.3.3.3.",
"3.3.3.3.3.3.3.3.3.3.3.3.3.3.3.3.2.w 8 i i 4 3.3.3.3.3.3.3.3.3.3.3.3.3.3.2.2.3.3.",
"3.3.3.3.3.3.3.3.3.3.3.3.3.3.3.3.2.-.$.%.$.O.1.3.3.3.3.3.3.3.3.3.3.3.3.3.3.3.3.2.",
"3.3.3.3.3.3.3.3.3.3.3.3.3.3.3.3.2.2.2.2.3.3.3.3.3.3.3.3.3.3.3.3.3.3.3.3.3.3.3.2.",
"3.3.3.3.3.3.3.3.3.3.3.3.3.3.3.3.3.3.2.2.3.3.3.3.3.3.3.3.3.3.3.3.3.3.3.3.3.3.2.2.",
"2.2.2.2.3.3.3.3.3.3.3.3.3.3.3.3.3.3.3.3.3.3.3.3.3.3.3.3.3.3.3.3.3.3.3.3.2.2.2.:.",
"O.$.$.2.3.3.3.3.3.3.3.3.3.3.3.3.3.3.3.3.3.3.3.3.3.3.3.3.3.3.3.3.3.3.3.3.1.:.-.-.",
"` [ O.1.3.2.3.3.3.3.3.3.3.3.3.3.3.3.3.3.3.3.3.3.3.3.3.3.3.3.3.3.3.3.3.3.1.$.` ` ",
"` ` o.-.-.2.3.3.3.3.3.3.3.3.3.3.3.3.3.3.3.3.3.3.3.3.3.3.3.3.3.3.3.2.3.1.-.} ` ` ",
"` ` [ } O.1.3.3.3.3.3.3.3.3.3.3.3.3.3.3.3.3.3.3.3.3.3.3.3.3.3.3.3.2.-.O.} [ ` ` ",
"` ` ` ` } -.3.3.3.3.3.3.3.3.3.3.3.3.3.3.3.3.3.3.3.3.3.3.3.3.3.3.3.3.-.o.` ] ` ` ",
"` ` [ O.$.1.3.3.3.3.3.3.3.3.3.3.3.3.3.3.3.3.3.3.3.3.3.3.3.3.3.3.3.3.1.$.O.O.O.O.",
"` ` O.1.2.2.2.3.3.3.3.3.3.3.3.3.3.3.3.3.3.3.3.3.3.3.3.3.3.3.3.3.3.3.2.3.3.3.1.1.",
"` ` O.2.2.2.3.3.3.3.3.3.3.3.3.3.3.3.3.3.3.3.3.3.3.3.3.3.3.3.3.3.3.3.3.3.2.2.3.3."
};
