/* XPM */
static char *Untitled_design_8_1696412665[] = {
/* columns rows colors chars-per-pixel */
"40 40 107 2 ",
"   c #161903",
".  c #1C1F02",
"X  c #1B1D04",
"o  c #15130D",
"O  c #1C1910",
"+  c #1B1914",
"@  c #21160B",
"#  c #1F2201",
"$  c #232902",
"%  c #262C01",
"&  c #25250C",
"*  c #25250D",
"=  c #2A2B0F",
"-  c #342F0A",
";  c #342C0C",
":  c #362D0C",
">  c #2D3300",
",  c #343B00",
"<  c #353D00",
"1  c #262117",
"2  c #2A2811",
"3  c #2C2A13",
"4  c #322C1B",
"5  c #412E15",
"6  c #453017",
"7  c #483A18",
"8  c #4F381D",
"9  c #453E25",
"0  c #5B3F20",
"q  c #403E3C",
"w  c #384000",
"e  c #3B4201",
"r  c #404B01",
"t  c #424C00",
"y  c #444F00",
"u  c #464A0A",
"i  c #55470F",
"p  c #455000",
"a  c #4E5903",
"s  c #505B03",
"d  c #594711",
"f  c #584914",
"g  c #51411A",
"h  c #5B5116",
"j  c #725D0E",
"k  c #556103",
"l  c #596603",
"z  c #5F6D05",
"x  c #5A6108",
"c  c #5E630B",
"v  c #5E640A",
"b  c #606D07",
"n  c #646809",
"m  c #7A660F",
"M  c #697807",
"N  c #69780A",
"B  c #70720C",
"V  c #484127",
"C  c #4F462D",
"Z  c #524226",
"A  c #544327",
"S  c #56492D",
"D  c #584B2F",
"F  c #464131",
"G  c #544A30",
"H  c #594E32",
"J  c #5D5234",
"K  c #5E5336",
"L  c #5F5436",
"P  c #6F4724",
"I  c #62582C",
"U  c #625737",
"Y  c #645A3A",
"T  c #655B3B",
"R  c #665B3B",
"E  c #675C3B",
"W  c #685C3B",
"Q  c #685D3C",
"!  c #695E3C",
"~  c #6B5F3D",
"^  c #6B603D",
"/  c #6E613E",
"(  c #6F623E",
")  c #6E623F",
"_  c #6F633F",
"`  c #716440",
"'  c #746741",
"]  c #756842",
"[  c #776943",
"{  c #776A43",
"}  c #786A43",
"|  c #786A44",
" . c #796B44",
".. c #646551",
"X. c #68645A",
"o. c #7A776E",
"O. c #845720",
"+. c #865821",
"@. c #A76B2C",
"#. c #A86C2C",
"$. c #72820A",
"%. c #75830C",
"&. c #788A0A",
"*. c #85970E",
"=. c #F0A150",
"-. c #949189",
";. c #A6A299",
/* pixels */
"Y Y Y Y Y Y E ) } | |  . . . . . . . . . . . . . . . . . . . . . . . . . . .| | ",
"Y Y Y Y Y Y ! ) }  . . . . . . . . . . . . . . . . . . . . . . . . . . .| | | ' ",
"Y Y Y Y ! ! ) ' |  . . . . . . . . . . . . . . . . . . . . . . . . . . .| ` ` ` ",
"Y Y Y Y ! ` { { |  . . . . . . . . . . . . . . . . . . . . . . . . . . .| ` ! Y ",
"Y Y Y ! ) ' | |  . . . . . . . . . . . . . . . . . . . . . . . . . . . .{ ^ Y Y ",
"Y Y ) ` ' { | |  . . . . . . . . . . . . . . . . . . . . . . . . . . . .{ ` E Y ",
"Y Y ) }  . .|  . . . . . . . . . . . . . . . . . . . . . . . . . . .| | { ` E Y ",
"Y Y ` |  . . . . . . . . . . . . . . . . . . . . . . . . . . . . . . .' ` ` ! Y ",
"Y Y ` '  . . . . . . . . . . . . . . . . . . . . . . . . . . . . . . . .} ` W Y ",
"! _ ` |  . . . . . . . . . . . . . . . . . . . . . . . . . . . . . . . .} ` ! ) ",
"' { ' |  . . . . . . . . . . . . . . . . . .| |  . . . . . . . . . . . .} } ` ` ",
"}  .| |  . . . . . . . . . . . . . . . . . .| }  . . . . . . . . . . . .| | | | ",
"} |  . . . . . . . . . . . . . . . . . .} |  .}  . . . . . . . . . . . . . .| } ",
"| |  . . . . . . . . . . . . . . . . . .} _ 9 D  . . . . . . . . . . . . . . .{ ",
" . . . . . . . . . . . . . . . .} { } { ) F -.X.U }  . . . . . .| | } _ { _ ` { ",
" . . . . . . . . . . . . . . . .{ J = 2 = o.;.;.q Y  . . . . . .| } } _ ) ! ^ ! ",
"' } } } } }  . . . . . . . .} Y S 3 M *.N ..q + 1 W  . . . . .| | { ` ! Y Y Y Y ",
"` ) ) ) _ }  . . . . . . .| Y = X i b &.z I X 3 W }  . . . . .| ` ) ^ E Y Y Y Y ",
"Y E Y W ) _  . . . . . . . .C $ e d m m j d e . S  . . . . . .{ ) ! Y Y Y Y Y Y ",
"! ! ! ! ) }  .|  . . . . . .C % k c i i f v k $ G  . . . .| | { ` ) ^ ^ ! E Y Y ",
"' ' ' ' } } } |  . . . . . .C @ s %.%.%.%.$.a X G  . . . . . .{ { ` ' ` ` W Y Y ",
"| | | |  . .} }  . . . . . .U * > r p p p t > * U  . . . . . . . . .| { { ) Y Y ",
" . .| |  . . . . . . . .| | } U * , < e e , * K  . . . . . . . . . .{ ` _ ! Y Y ",
" . . .|  . . . . . . . .| } ' 9 u O.#.#.@.O.u V {  . . . . . . . .| ` ^ Y Y Y E ",
" . . . . . . . . . . . . .{ S h x n B B B n x h D '  . . . . . . . .} ) E W W ) ",
" . . . . . . . . . . . .| U 0 =.5 t l l l e 6 =.8 U  . . . . . . . .} { ` { ` { ",
" . . . . . . . . . . . .| ) A P @ < p p p < @ P Z ) }  . . . . . . . . .} |  . .",
" . . . . . . . . . . . .| | ~ H O - -   - - O K ) } |  . . . . . . . . .| |  . .",
" . . . . . . . . . . . . . . . .4 g 7 o 7 g 4  . . . . . . . . . . . . . . .| | ",
" . . . . . . . . . . . . . . . .' | ' ' } } _  . . . . . . . . . . . . . .| | | ",
" . . . . . . . . . . . . . . . . . .| |  . . . . . . . . . . . . . . . . . .{ | ",
"| | | |  . . . . . . . . . . . . . .| |  . . . . . . . . . . . . . . . .| | { { ",
") ` ` |  . . . . . . . . . . . . . . . . . . . . . . . . . . . . . . . .{ ` ` ` ",
"Y ! ) }  .|  . . . . . . . . . . . . . . . . . . . . . . . . . . . . . .{ ` ! Y ",
"Y Y ) _ ` }  . . . . . . . . . . . . . . . . . . . . . . . . . . . .} { ` ! Y Y ",
"Y Y W ! ) }  . . . . . . . . . . . . . . . . . . . . . . . . . . .| _ _ ! ! Y Y ",
"Y Y Y Y ) `  . . . . . . . . . . . . . . . . . . . . . . . . . . . .` ) Y Y Y W ",
"Y Y ! ) ` {  . . . . . . . . . . . . . . . . . . . . . . . . . . . .} ` _ _ ) ) ",
"Y Y ) ' { } |  . . . . . . . . . . . . . . . . . . . . . . . . . . .| | } } } } ",
"Y W ) } | | | |  . . . . . . . . . . . . . . . . . . . . . . . . . . . .| | | | "
};
