/* XPM */
static char *Untitled_design_6_1696412666[] = {
/* columns rows colors chars-per-pixel */
"40 40 142 2 ",
"   c #121404",
".  c #171904",
"X  c #1C1907",
"o  c #10100E",
"O  c #181809",
"+  c #1C1C09",
"@  c #1F2301",
"#  c #1D2102",
"$  c #222701",
"%  c #212304",
"&  c #242604",
"*  c #222802",
"=  c #262B01",
"-  c #252009",
";  c #2D3401",
":  c #31340D",
">  c #33360D",
",  c #3D370B",
"<  c #373B0B",
"1  c #3E3A08",
"2  c #2D2514",
"3  c #2B2815",
"4  c #27241C",
"5  c #2E291B",
"6  c #342919",
"7  c #322C1D",
"8  c #38331C",
"9  c #393321",
"0  c #3C3623",
"q  c #3F3922",
"w  c #37342D",
"e  c #413A0B",
"r  c #442916",
"t  c #56341B",
"y  c #433C23",
"u  c #3C4600",
"i  c #3E4701",
"p  c #384007",
"a  c #3A4108",
"s  c #414B00",
"d  c #424D00",
"f  c #444F00",
"g  c #455000",
"h  c #475003",
"j  c #485202",
"k  c #525F02",
"l  c #585A09",
"z  c #4C4213",
"x  c #4E4119",
"c  c #5E5C12",
"v  c #7C5F1C",
"b  c #556103",
"n  c #566007",
"m  c #596106",
"M  c #5C6307",
"N  c #5A6704",
"B  c #616F06",
"V  c #64670D",
"C  c #69690F",
"Z  c #657307",
"A  c #667507",
"S  c #68770D",
"D  c #6C7B08",
"F  c #6B7A0D",
"G  c #4F4127",
"H  c #4D4229",
"J  c #4F472D",
"K  c #534A2F",
"L  c #4C4532",
"P  c #5A4F33",
"I  c #4E5131",
"U  c #595031",
"Y  c #5A5033",
"T  c #5D5337",
"R  c #5E5337",
"E  c #5F5435",
"W  c #51533C",
"Q  c #7C552C",
"!  c #615637",
"~  c #665937",
"^  c #635838",
"/  c #645A3A",
"(  c #655B3B",
")  c #665B3B",
"_  c #675C3B",
"`  c #6A5C38",
"'  c #695C3B",
"]  c #695E3C",
"[  c #6B5F3D",
"{  c #646D26",
"}  c #7B6828",
"|  c #6B603D",
" . c #6D613E",
".. c #6E623F",
"X. c #70633F",
"o. c #71643F",
"O. c #474643",
"+. c #5D5A52",
"@. c #645E44",
"#. c #5E604C",
"$. c #6B664E",
"%. c #716440",
"&. c #716540",
"*. c #726440",
"=. c #736641",
"-. c #746741",
";. c #746742",
":. c #756842",
">. c #776943",
",. c #776A43",
"<. c #786A43",
"1. c #786A44",
"2. c #796B44",
"3. c #72664E",
"4. c #776B54",
"5. c #706E68",
"6. c #805D20",
"7. c #895A27",
"8. c #81562C",
"9. c #865A2D",
"0. c #8B6D35",
"q. c #A97138",
"w. c #B67C46",
"e. c #807D76",
"r. c #798333",
"t. c #7C843C",
"y. c #81930C",
"u. c #84970D",
"i. c #9B8953",
"p. c #A9945C",
"a. c #848360",
"s. c #8C886C",
"d. c #999579",
"f. c #9D997C",
"g. c #A0A268",
"h. c #A5A76B",
"j. c #D9944A",
"k. c #DF9D56",
"l. c #ECA050",
"z. c #E3A159",
"x. c #8D8A84",
"c. c #C9C4B9",
/* pixels */
"/ / / / / / _ ..,.1.1.2.2.2.2.2.2.2.2.2.2.2.2.2.2.2.2.2.2.2.2.2.2.2.2.2.2.2.2.2.",
"/ / / / / / ] ..,.2.2.2.2.2.2.2.2.2.2.2.2.2.2.2.2.2.2.2.2.2.2.2.2.2.2.2.2.;.,.;.",
"/ / / / ] ] ..-.<.2.2.2.2.2.2.2.2.2.2.2.2.2.2.2.2.2.2.2.2.2.2.2.2.2.2.2.2.%.%.%.",
"/ / / / ] %.,.,.1.2.2.2.2.2.2.2.2.2.2.2.2.2.2.2.2.2.2.2.2.2.2.2.2.2.2.2.;.%._ _ ",
"/ ^ / ] ..-.1.1.2.2.2.2.2.2.2.2.2.2.2.2.2.2.2.2.2.2.2.2.2.2.2.2.2.2.2.2.%.%._ ^ ",
"/ ^ ..%.-.,.1.1.2.2.2.2.2.2.2.2.2.2.2.2.2.2.2.2.2.2.2.2.2.2.2.2.2.2.2.2.,.%._ ( ",
"/ _ ..<.2.2.1.2.2.2.2.2.2.2.2.2.2.2.2.2.2.2.2.2.2.2.2.2.2.2.2.2.2.2.2.,.,.%.( ^ ",
"^ _ %.1.2.2.2.2.2.2.2.2.2.2.2.2.2.2.2.2.2.2.2.2.2.2.2.2.2.2.2.2.2.2.2.,.;.%.( _ ",
"_ / %.;.2.2.2.2.2.2.2.2.2.2.2.2.2.2.2.1.2.2.2.2.2.2.2.2.2.2.2.2.2.2.2.2.,.%./ ^ ",
"_ %.%.,.2.2.2.2.2.2.2.2.2.2.2.2.2.2.2.1.2.2.2.2.2.2.2.2.2.2.2.2.2.2.2.2.,.%...| ",
"%.,.;.,.2.2.2.2.2.2.2.2.2.2.2.2.2.2.,.<.2.2.2.2.2.2.2.2.2.2.2.2.2.2.2.2.,.;.%.,.",
"1.2.2.,.2.2.2.2.2.2.2.2.2.2.2.1.<.o.,.2.2.2.2.2.2.2.2.2.2.2.2.2.2.2.2.2.,.2.2.2.",
"1.2.2.2.2.2.2.2.2.2.2.2.2.2.2.,.R w L %.1.1.2.2.2.2.2.2.2.2.2.2.2.2.2.2.2.2.2.2.",
"2.2.2.2.2.2.2.2.2.2.2.2.2.2.1.R +.c.e.L P Y ! 2.2.2.2.2.2.2.2.2.2.2.2.2.2.2.2.2.",
"2.2.2.2.2.2.2.2.2.2.2.2.2.2.1.4 5.e.x.I p a > Y 2.2.2.2.2.2.2.2.2.2.;.;.;.%.;.o.",
"2.2.2.2.2.2.2.2.2.2.2.2.2.2.1.K 0 o O.{ y.u.m 2 7 / 2.2.2.2.2.2.<.,.;...| ..| | ",
"<.-.<.<.<.<.2.2.2.2.2.2.2.1.<.X.3 = z c S F l t = - ] <.<.2.2.<.,.,.%._ / / / / ",
"*...*.o.o.<.2.2.2.2.2.2.2.<.<.] + u 1 @.d.f.$.e u O ~ <.2.2.2.<.%.%.| / / / / / ",
"^ ) / / ..%.2.2.2.2.2.2.2.2.,...# i j a.4.3.s.h g O _ <.2.2.2.,..._ / / / / / / ",
"] ] ] ] ..,.2.2.2.2.2.2.2.2.,...O 1 Z r.g.h.t.D u   ^ <.2.2.2.,.%...| | | _ / / ",
"%.,.*.%.<.<.<.1.2.2.2.2.2.2.2.,.q @ u B A A B f * 8 o.2.2.2.2.,.;.;.%.;.%.| / / ",
"1.2.2.2.2.2.1.1.2.2.2.2.2.2.2.2.%.y #.W i.p.x e.8 o.,.2.2.2.2.2.2.2.2.2.%.%.( _ ",
"2.2.2.2.2.2.2.2.2.2.2.2.2.2.<.,.! > } w.k.z.p.0.< Y <.<.2.2.2.2.2.2.;.%.%./ ) / ",
"2.2.2.2.2.2.2.2.2.2.2.2.2.<.<.! x C k v 7.7.6.M V x Y ,.2.2.2.2.2.2.%.| ( ( ) T ",
"2.2.2.2.2.2.2.2.2.2.2.2.2.2.,.6 j.q.$ k N N b ; 9.l.r o.2.2.2.2.2.2.,.%._ %.%.) ",
"2.2.2.2.2.2.2.2.2.2.2.2.2.2.<.H Q t # s g g d = r 8.G o.2.2.2.2.2.2.,.%.%.%.%.,.",
"2.2.2.2.2.2.2.2.2.2.2.2.2.2.2.<.K 9 X , & & 1 - 5 J ..<.2.2.2.2.2.2.2.2.,.2.2.2.",
"2.2.2.2.2.2.2.2.2.2.2.2.2.2.2.2.<.o.~ ] R T ` _ ..,.<.<.2.2.2.2.2.2.2.2.2.2.2.2.",
"2.2.2.2.2.2.2.2.2.2.2.2.2.2.2.2.<.2.2.2.2.2.2.2.2.2.2.2.2.2.2.2.2.2.2.2.2.2.2.2.",
"2.2.2.2.2.2.2.2.2.2.2.2.2.2.2.2.2.2.2.2.2.2.2.2.2.2.2.2.2.2.2.2.2.2.2.2.2.2.2.2.",
"2.2.1.1.2.2.2.2.2.2.2.2.2.2.2.2.2.2.2.2.2.2.2.2.2.2.2.2.2.2.2.2.2.2.2.2.2.2.1.2.",
"<.1.1.1.2.2.2.2.2.2.2.2.2.2.2.2.2.2.2.2.2.2.2.2.2.2.2.2.2.2.2.2.2.2.2.2.1.,.,.;.",
"%.%.%.<.1.2.2.2.2.2.2.2.2.2.2.2.2.2.2.2.2.2.2.2.2.2.2.2.2.2.2.2.2.2.2.2.,.%.%.%.",
"/ ] %.,.1.,.2.2.2.2.2.2.2.2.2.2.2.2.2.2.2.2.2.2.2.2.2.2.2.2.2.2.2.2.2.2.;.%._ _ ",
"/ _ ] %.%.,.2.2.2.2.2.2.2.2.2.2.2.2.2.2.2.2.2.2.2.2.2.2.2.2.2.2.1.1.1.-.%.../ / ",
"/ / _ _ *.,.2.2.2.2.2.2.2.2.2.2.2.2.2.2.2.2.2.2.2.2.2.2.2.2.2.2.2.1.;.%._ _ / / ",
"/ / / / ] -.2.2.2.2.2.2.2.2.2.2.2.2.2.2.2.2.2.2.2.2.2.2.2.2.2.2.2.2.%.../ _ ^ / ",
"/ / _ %.%.;.2.2.2.2.2.2.2.2.2.2.2.2.2.2.2.2.2.2.2.2.2.2.2.2.2.2.2.2.,.%.%.%.*.*.",
"/ / %.-.,.1.1.2.2.2.2.2.2.2.2.2.2.2.2.2.2.2.2.2.2.2.2.2.2.2.2.2.2.2.1.1.-.1.,.<.",
"/ _ %.-.1.2.2.2.2.2.2.2.2.2.2.2.2.2.2.2.2.2.2.2.2.2.2.2.2.2.2.2.2.2.1.2.,.1.1.1."
};
