/* XPM */
static char *Untitled_design_5_1696411289[] = {
/* columns rows colors chars-per-pixel */
"40 40 113 2 ",
"   c gray9",
".  c #1B1F1B",
"X  c #211D17",
"o  c #1B231E",
"O  c #1C281F",
"+  c #2B2316",
"@  c #26251D",
"#  c #2A271C",
"$  c #26281F",
"%  c #362914",
"&  c #3E2F16",
"*  c #362C19",
"=  c #3F331D",
"-  c #1E2D22",
";  c #1F3127",
":  c #1E3429",
">  c #232D24",
",  c #2C2C22",
"<  c #312D21",
"1  c #243325",
"2  c #2B3724",
"3  c #273925",
"4  c #203629",
"5  c #213E2E",
"6  c #353325",
"7  c #3F3623",
"8  c #333B24",
"9  c #3D3728",
"0  c #373D2A",
"q  c #3F3A29",
"w  c #433215",
"e  c #483313",
"r  c #473817",
"t  c #4F3A14",
"y  c #533D15",
"u  c #503E1B",
"i  c #413724",
"p  c #433925",
"a  c #4C3E20",
"s  c #433D2B",
"d  c #483F2A",
"f  c #22412F",
"g  c #2E452C",
"h  c #284B2F",
"j  c #3B532E",
"k  c #234531",
"l  c #254932",
"z  c #294E34",
"x  c #2A5133",
"c  c #2F5B37",
"v  c #2E5F39",
"b  c #305833",
"n  c #2F6139",
"m  c #386037",
"M  c #31643A",
"N  c #346B3D",
"B  c #3B6C3D",
"V  c #5A4417",
"C  c #5E4818",
"Z  c #624D1C",
"A  c #67521E",
"S  c #47422E",
"D  c #4C432D",
"F  c #40492E",
"G  c #4B532D",
"H  c #445D2F",
"J  c #4A5E2C",
"K  c #5F512E",
"L  c #4F4730",
"P  c #504730",
"I  c #534A32",
"U  c #584F35",
"Y  c #5B5236",
"T  c #695323",
"R  c #66572F",
"E  c #6B572A",
"W  c #725C26",
"Q  c #615639",
"!  c #655A3A",
"~  c #6A5E3D",
"^  c #466734",
"/  c #416C3C",
"(  c #46733C",
")  c #5C7332",
"_  c #517C3F",
"`  c #5B7D38",
"'  c #77612E",
"]  c #6E623F",
"[  c #637F34",
"{  c #3F7540",
"}  c #477C41",
"|  c #4A7E43",
" . c #736641",
".. c #766943",
"X. c #796B44",
"o. c #7DA23E",
"O. c #4F8344",
"+. c #538644",
"@. c #578A45",
"#. c #598C45",
"$. c #5D9046",
"%. c #639646",
"&. c #689743",
"*. c #6B9A44",
"=. c #6DA047",
"-. c #73A547",
";. c #77A947",
":. c #7BAC47",
">. c #84AE43",
",. c #85B447",
"<. c #88B747",
"1. c #8FBC45",
"2. c #93C147",
/* pixels */
"! ! ! ! ! ! ! ] ..X.X.X.X.X.X.X.X.X.X.X.X.X.X.X.X.X.X.X.X.X.X.X.X.X.X.X.X.X.X.X.",
"! ! ! ! ! ! ! ] ..X.X.X.X.X.X.X.X.X.X.X.X...X.X.X.X.X.X.X.X.X.X.X.X.X.X.X.......",
"! ! ! Y ! ] ] ..X.X.X.X.X.X.X.X...I ,     # I ..X.X.X.X.X.X.X.X.X.X.X.X.....] ] ",
"! ! ! ! ] ] X.X.X.X.X.X.X.X... .~ I 8 $ 2 8 I ~  ...X.X.X.X.X.X.X.X.X.X... .~ ! ",
"! ! ! ] ]  .X.X.X.X.X.X.X.X. .Y s G [ [ [ ) G s Y  .X.X.X.X.X.X.X.X.X.X...] ! ! ",
"! ! ] ] ] X.X.X.X.X.X.X.X. .~ s $ J o.1.1.o.J # S ~  ...X.X.X.X.X.X.X.X...] ! ! ",
"! ! ] ..X.X.X.X.X.X.X.X. .U S j j ` ,.2.1.>.` j F S Y  .X.X.X.X.X.X.X.X...] ~ ! ",
"! ! ] X.X.X.X.X.X.X.X.X.~ s @ j _ *.<.1.1.<.*._ j # s ~ X.X.X.X.X.X.X.X...] ! ! ",
"! ! ] X.X.X.X.X.X.X.X.X.~ 9 o j $.-.,.<.<.,.-.#.j @ 9 ~ X.X.X.X.X.X.X.X...] ! ! ",
"] ! ] ..X.X.X.X.X.X.X.X.~ 9 @ H &.-.:.:.:.:.;.*.H O 9 ! X.X.X.X.X.X.X.X.....~ ~ ",
"..] X.X.X.X.X.X.X.X.] ! U 0 3 ^ &.-.;.;.-.-.-.%.^ 3 0 U !  .X.X.X.X.X.X.........",
"X.X.X.X.X.X.X.X.X.X.! S 6 g b ( #.*.-.;.;.-.*.$.( b g 6 s ! X.X.X.X.X.X.X.X.....",
"X.X.X.X.X.X.X.X.] ] I 6 - x B | #.&.=.-.-.*.%.@.} ( h > , U ~  ...X.X.X.X.X.X...",
"X.X.X.X.X.X.X...Q S 6 1 3 c } +.#.#.%.&.%.%.$.#.+.| m 5 1 6 L Y ....X.X.X.X.X...",
"X.X.X.X.X.X.X...I # - 4 x / @.@.@.#.@.#.#.#.#.@.@.@./ z 4 . > I ................",
"X.X.X.X.X.X.X...I # o f c B } +.@.#.#.#.#.#.#.@.O.} B b f - @ I ......] ~ ~ ~ ~ ",
"............X...G O - x M v { { @.@.@.#.@.@.@.@.} { N N x ; O F  ... .~ ! ! Q ! ",
"] ] ] ]  ...X...I O - x N { M { | | | O.| { | | { { N N x : > L  .] ~ ! Q ! ! ! ",
"! ! ! ~ ~  .X...I # ; l N N v { { n { { { N { { N N N N x - @ I ] ~ ! ! ! ! ! ! ",
"] ~ ~ ~ ] ..X...I # ; l v M v { { { { n N N M N N N n v h - @ I  .~ ~ ~ ~ ! ! ! ",
" . . . .....X...I # - 4 x { { { v { { M N N N N N N v x 5 o @ I  . . . . .~ ! ! ",
"X.X.X.X.X.X.X...I @ o ; k x z v v x M v M v M M n n x k ; o @ I ..X.X.....] ! ! ",
"X.X.X.X.X.X.X...I X o ; 5 l z z l l x x x l x l x x l f ; o @ I ..X. . .] ~ ! Q ",
"X.X.X.X.X.X.X...I , - ; 5 5 f 5 k k f f f f k k f f k : 1 O , I ..X. .] ! Q ! ! ",
"X.X.X.X.X.X.X.X.Y q , > - : 5 5 5 k 5 5 5 5 5 5 f 5 : ; - , 9 Y ..X...] ~ ~ ~ ~ ",
"X.X.X.X.X.X.X...~ I q , o ; 5 5 5 5 5 f 5 5 5 5 5 5 - - , 9 I ! ..X....... . . .",
"X.X.X.X.X... .~ Y U d < , > ; 1 1 2 2 0 8 8 2 1 ; - > , 6 d U Q ~ ] ..X.X.X.X.X.",
"X.X.X.X.X...~ U U I L L 9 , . o # * w r r r * + o . , q L L I I U ~ ..X.X.X.X.X.",
"X.X.X.X.X...Q U I I P I S , X + % w t y y t w % + X < d I I I I U ! ..X.X.X.X.X.",
"X.X.X.X.X...! I I I I I S = + % w t V C Z y t e & X 6 L I I L I I ! ..X.X.X.X.X.",
"X.X.X.X.X...! U P I P I D i * & e y Z A A Z y e w * i d I P I I U ! ..X.X.X.X.X.",
"........X...! I I I I I P d p = & u T W W T u & i i s L I I I I I Q ..X...X.....",
"] ]  ...X...! I I I I I L I L 7 * a E ' ' E a * i d I I I I I I I ! ..X.X...] ] ",
"~ ~ ] ..X...! I I I I I I I P s d d K R R K a d d I I I U d I I I ~ ..X...] ~ ! ",
"Q ~ ] ]  . .! I I I I I I I I P d I I I I I I d I I I I I I I I I !  . .] ] ! ! ",
"! Q ~ ~ ]  . .Q Y I I I P I P I I I P I I I I I I I I I I I I Y Q ]  .] ~ ~ ! Q ",
"! Q ! ! ~  . . .! U I I I I P I I P I I I I I I I d I I I I U !  ... .~ ! ! ! ! ",
"! ! ~ ]  ...X.X.~ U I P I I I I I I I I I I I P I I I I I I U ~ X.X... .] ]  .] ",
"! Q  .....X.X.X.X.X.X.X.X.X.X.X.X.X.X.X.X.X.X.X.X.X.X.X.X.X.X.X.X.X.X...X.......",
"! ~ ~ ..X.X.X.X.X.X.X.X.X.X.X.X.X.X.X.X.X.X.X.X.X.X.X.X.X.X.X.X.X.X.X.X.X.X.X.X."
};
