/* XPM */
static char *_118339d11e24a3ff42c67b3bfd6b9847xyxKKqjSOGSHJwn[] = {
/* columns rows colors chars-per-pixel */
"40 40 5 1 ",
"  c #BACF5D",
". c #B1D354",
"X c #B8D455",
"o c #BAD05D",
"O c #BCD361",
/* pixels */
"X......................................O",
"X......................................O",
"X......................................O",
"X......................................O",
"X......................................O",
"X......................................O",
"X......................................O",
"X......................................O",
"X......................................O",
"X......................................O",
"X......................................O",
"X......................................O",
"X......................................O",
"X......................................O",
"X......................................O",
"X......................................O",
"X......................................O",
"X......................................O",
"X......................................O",
"X......................................O",
"X......................................O",
"X......................................O",
"X......................................O",
"X......................................O",
"X......................................O",
"X......................................O",
"X......................................O",
"X......................................O",
"X......................................O",
"X......................................O",
"X......................................O",
"X......................................O",
"X......................................o",
"X......................................o",
"X...................................... ",
"X...................................... ",
"X...................................... ",
"X...................................... ",
"X...................................... ",
"X...................................... "
};
