/* XPM */
static char *Untitled_design_9_1696412665[] = {
/* columns rows colors chars-per-pixel */
"40 40 149 2 ",
"   c #0E0D0A",
".  c #110F0B",
"X  c #1A1D02",
"o  c #1A1A08",
"O  c #201B09",
"+  c #221C0F",
"@  c #211E13",
"#  c #1E2202",
"$  c #242704",
"%  c #262903",
"&  c #2A2F00",
"*  c #2F2E03",
"=  c #2C2C05",
"-  c #25230F",
";  c #2F3500",
":  c #313801",
">  c #333B00",
",  c #373B03",
"<  c #353C01",
"1  c #34340E",
"2  c #38390C",
"3  c #242210",
"4  c #262511",
"5  c #262216",
"6  c #282712",
"7  c #2F2114",
"8  c #2E2716",
"9  c #362411",
"0  c #342A12",
"q  c #3D2A16",
"w  c #322D1A",
"e  c #383913",
"r  c #38321F",
"t  c #312E26",
"y  c #423B0F",
"u  c #4F3E17",
"i  c #653B1F",
"p  c #423426",
"a  c #453824",
"s  c #463E28",
"d  c #413D35",
"f  c #394201",
"g  c #3A4201",
"h  c #414A00",
"j  c #424C07",
"k  c #484B07",
"l  c #47490A",
"z  c #55450E",
"x  c #465101",
"c  c #4A5501",
"v  c #525E03",
"b  c #4A4917",
"n  c #44491E",
"m  c #524313",
"M  c #554411",
"N  c #554615",
"B  c #5D4C11",
"V  c #534118",
"C  c #65520F",
"Z  c #625415",
"A  c #745B10",
"S  c #566103",
"D  c #576404",
"F  c #5E661B",
"G  c #647206",
"H  c #677607",
"J  c #6D7D07",
"K  c #657108",
"L  c #68770A",
"P  c #6B7A09",
"I  c #7A6210",
"U  c #4D4925",
"Y  c #4A412A",
"T  c #4E452C",
"R  c #49463D",
"E  c #554B30",
"W  c #574B33",
"Q  c #5B5133",
"!  c #5A5034",
"~  c #5D5235",
"^  c #5F5436",
"/  c #704A23",
"(  c #625B24",
")  c #605536",
"_  c #625737",
"`  c #665C37",
"'  c #645A3A",
"]  c #655B3B",
"[  c #665B3B",
"{  c #675C3B",
"}  c #685C3B",
"|  c #695E3C",
" . c #6B5F3C",
".. c #6B5F3D",
"X. c #6C7623",
"o. c #6B603D",
"O. c #6C603C",
"+. c #6F623C",
"@. c #6E623F",
"#. c #70643F",
"$. c #75663E",
"%. c #464541",
"&. c #4A4740",
"*. c #494744",
"=. c #4F4D49",
"-. c #5D5950",
";. c #716440",
":. c #736641",
">. c #746742",
",. c #776943",
"<. c #776A43",
"1. c #786A43",
"2. c #786A44",
"3. c #796B44",
"4. c #66635E",
"5. c #6A6762",
"6. c #6F6A60",
"7. c #885D20",
"8. c #88552B",
"9. c #A77927",
"0. c #A5792B",
"q. c #B96936",
"w. c #A37831",
"e. c #8D7C45",
"r. c #9E7952",
"t. c #817D63",
"y. c #877D69",
"u. c #D27C40",
"i. c #7A8C0B",
"p. c #79890C",
"a. c #7D8B0F",
"s. c #8B9E0F",
"d. c #849314",
"f. c #87971C",
"g. c #8C9C1E",
"h. c #818A3C",
"j. c #BD9335",
"k. c #888F4F",
"l. c #838065",
"z. c #9F866B",
"x. c #828271",
"c. c #918D73",
"v. c #ED9B4D",
"b. c #EFA04F",
"n. c #ECB278",
"m. c #929089",
"M. c #BEB9AF",
"N. c #BDBAB0",
"B. c #D1CCC1",
/* pixels */
"' ' ' ' ' ' { @.1.3.2.3.3.3.3.3.3.3.3.3.3.3.3.3.3.3.3.3.3.3.3.3.3.3.3.3.3.3.3.3.",
"' ' ' ' ' ' | @.1.3.3.3.3.3.3.3.3.3.3.3.3.3.3.3.3.3.3.3.3.3.3.3.3.3.3.3.3.>.3.>.",
"' ' ' ' | } @.:.<.3.3.3.3.3.3.3.3.3.3.3.3.3.3.3.3.3.3.3.3.3.3.3.3.3.3.3.3.;.;.;.",
"' ' ' ' | :.<.1.2.3.3.3.3.3.3.3.3.3.3.3.3.3.3.3.3.3.3.3.3.3.3.3.3.3.3.3.,.;.} ' ",
"' ' ' } @.:.2.3.3.3.3.3.3.3.3.3.3.3.3.3.3.3.3.3.3.3.3.3.3.3.3.3.3.3.3.3.3.| { ' ",
"' ' @.:.:.2.3.3.3.3.3.3.3.3.3.3.3.3.3.3.3.3.3.3.3.3.3.3.3.3.3.3.3.3.3.3.<.:.' ' ",
"' ' @.<.3.3.3.3.3.3.3.3.3.3.3.3.3.3.3.3.3.3.3.3.3.3.3.3.3.3.3.3.3.3.3.3.<.;.' ' ",
"' { @.2.3.3.3.3.3.3.3.3.3.3.3.3.3.3.3.3.3.3.3.3.3.3.3.3.3.3.3.3.3.3.3.3.;.;.{ ' ",
"' ' @.1.3.3.3.3.3.3.3.3.3.3.3.3.3.3.3.3.3.3.3.3.3.3.3.3.3.3.3.3.3.3.3.3.<.:.{ ' ",
"| @.:.<.3.3.3.3.3.3.3.3.3.3.3.3.3.3.3.3.3.3.3.3.3.3.3.3.3.3.3.3.3.3.3.3.<.@.o.o.",
":.:.:.<.3.3.3.3.3.3.3.3.3.3.3.3.3.3.3.3.3.3.3.3.3.3.3.3.3.3.3.3.3.3.3.3.<.>.:.:.",
"3.3.3.2.3.3.3.3.3.3.3.3.3.3.3.3.3.3.3.3.3.3.3.3.3.3.3.3.3.3.3.3.3.3.3.3.3.3.1.3.",
"3.3.3.3.3.3.3.3.3.3.3.3.3.3.3.3.3.3.3.3.3.3.3.3.3.3.3.3.3.3.3.3.3.3.3.3.3.3.3.3.",
"3.3.3.3.3.3.3.3.3.3.3.3.3.3.3.3.3.3.3.3.3.1._ Q ! ) <.3.3.3.3.3.3.3.3.3.3.3.3.3.",
"3.3.3.3.3.3.3.3.3.3.3.3.3.3.3.3.3.3.3.3.1.~ d *.*.R ! 3.3.3.3.3.3.3.<.@.>.>.@.:.",
"3.3.3.3.3.3.3.3.3.3.3.3.3.3.3.3.3.3.1._ s R m.N.B.N.-.E 3.3.3.3.3.<.<.@.o.o.o.o.",
"<.:.:.1.<.<.3.3.3.3.3.3.3.3.3.1.3.3.) e j h.k.x.5.4.=.5 1.3.3.3.<.<.;.{ ] ' ' ' ",
";.;.;.:.#.<.3.3.3.3.3.3.3.3.3.1.3._ 8 l i.s.P U   . Y ! 3.3.3.1.>.@.o.{ ' ' ' ' ",
"' ' } ' | >.3.3.3.3.3.3.3.3.1.1.' t 6.t.X.J S C * $ r 3.3.3.3.<.@.{ { ' ' { ] ' ",
"| | | | @.>.3.3.3.3.3.3.3.3.<._ 3 1 W y.e.I A M , > @ 3.3.2.3.<.;.o.o.o.[ [ ] ' ",
":.>.>.:.1.1.1.3.3.3.3.3.3.3.@.- < F t.c.` N m k h > @ 3.3.3.3.<.>.>.>.;.;.o.[ ' ",
"3.3.3.1.3.3.3.3.3.3.3.3.3.3.} o x L f.g.d.a.K S g & @ 3.3.3.3.3.3.3.2.<.>.o.[ [ ",
"3.3.3.3.3.3.3.3.3.3.3.3.1.1.@.6 g c H p.p.G D g ; % w 3.3.3.3.3.3.3.>.;.o.o.[ [ ",
"3.3.3.3.3.3.3.3.3.3.3.3.1.<.<.} 6 2 b n ( Z B z = w :.3.3.3.3.3.3.2.>.o.] ' ' ~ ",
"3.3.3.3.3.3.3.3.3.3.3.3.3.3.3.3.! p r.z.n.v.u.q.9 ;.3.3.3.3.3.3.3.3.>.;...} | @.",
"3.3.3.3.3.3.3.3.3.3.3.3.3.3.3.3.} r / w.0.9.7.i p ;.3.3.3.3.3.3.3.3.3.>.;.>.>.>.",
"3.3.3.3.3.3.3.3.3.3.3.3.3.3.3.3.3.E X g v K c o ' 3.2.3.3.3.3.3.3.3.3.3.3.3.3.3.",
"3.3.3.3.3.3.3.3.3.3.3.3.3.3.3.3.2.E $ ; 7.j.y . } 3.3.3.3.3.3.3.3.3.3.3.3.3.3.3.",
"3.3.3.3.3.3.3.3.3.3.3.3.3.3.3.3.3.E X X 8.b.y . ' 3.3.3.3.3.3.3.3.3.3.3.3.3.3.3.",
"3.3.3.3.3.3.3.3.3.3.3.3.3.3.3.3.3.@.a O 9 q . s 3.3.3.3.3.3.3.3.3.3.3.3.3.3.3.3.",
"3.3.3.3.3.3.3.3.3.3.3.3.3.3.3.3.3.1.T 0 V u + ' 3.3.3.3.3.3.3.3.3.3.3.3.3.3.3.3.",
",.>.3.3.3.3.3.3.3.3.3.3.3.3.3.3.3.1.#.#.$.$.| <.3.2.3.3.3.3.3.3.3.3.3.3.>.3.>.3.",
";.;.;.3.3.3.3.3.3.3.3.3.3.3.3.3.3.3.3.3.3.3.3.3.3.3.3.3.3.3.3.3.3.3.3.3.>.;.;.;.",
"' } ;.,.3.3.3.3.3.3.3.3.3.3.3.3.3.3.3.3.3.3.3.3.3.3.3.3.3.3.3.3.3.3.3.3.<.:.} } ",
"' [ ..;.;.3.3.3.3.3.3.3.3.3.3.3.3.3.3.3.3.3.3.3.3.3.3.3.3.3.3.3.3.3.>.>.:.| ' ' ",
"' [ ' } ;.>.3.3.3.3.3.3.3.3.3.3.3.3.3.3.3.3.3.3.3.3.3.3.3.3.3.3.3.3.>.;.' | ' ' ",
"' ' ' | | :.3.3.3.3.3.3.3.3.3.3.3.3.3.3.3.3.3.3.3.3.3.3.3.3.3.3.3.3.>...' [ } [ ",
"' ' ' ;.;.<.3.3.3.3.3.3.3.3.3.3.3.3.3.3.3.3.3.3.3.3.3.3.3.3.3.3.3.3.>.;.@.;.| ;.",
"' [ | ;.>.3.3.3.3.3.3.3.3.3.3.3.3.3.3.3.3.3.3.3.3.3.3.3.3.3.3.3.3.3.3.,.<.<.<.3.",
"' } :.2.3.3.3.3.3.3.3.3.3.3.3.3.3.3.3.3.3.3.3.3.3.3.3.3.3.3.3.3.3.3.3.3.3.3.>.3."
};
